<svg xmlns="http://www.w3.org/2000/svg" version="1.1" xmlns:xlink="http://www.w3.org/1999/xlink" xmlns:svgjs="http://svgjs.dev/svgjs" width="1000" height="623" viewBox="0 0 1000 623"><g transform="matrix(1,0,0,1,-0.6060606060606233,0.2522267206477409)"><svg viewBox="0 0 396 247" data-background-color="#4b91f1" preserveAspectRatio="xMidYMid meet" height="623" width="1000" xmlns="http://www.w3.org/2000/svg" xmlns:xlink="http://www.w3.org/1999/xlink"><g id="tight-bounds" transform="matrix(1,0,0,1,0.2400000000000091,-0.09999999999999432)"><svg viewBox="0 0 395.52 247.2" height="247.2" width="395.52"><g><svg></svg></g><g><svg viewBox="0 0 395.52 247.2" height="247.2" width="395.52"><g transform="matrix(1,0,0,1,75.54432000000001,108.36444097560975)"><svg viewBox="0 0 244.43135999999996 30.471118048780486" height="30.471118048780486" width="244.43135999999996"><g><svg viewBox="0 0 244.43135999999996 30.471118048780486" height="30.471118048780486" width="244.43135999999996"><g><svg viewBox="0 0 244.43135999999996 30.471118048780486" height="30.471118048780486" width="244.43135999999996"><g><svg viewBox="0 0 244.43135999999996 30.471118048780486" height="30.471118048780486" width="244.43135999999996"><g id="textblocktransform"><svg viewBox="0 0 244.43135999999996 30.471118048780486" height="30.471118048780486" width="244.43135999999996" id="textblock"><g><svg viewBox="0 0 244.43135999999996 30.471118048780486" height="30.471118048780486" width="244.43135999999996"><g transform="matrix(1,0,0,1,0,0)"><svg width="244.43135999999996" viewBox="-7.400000095367432 -38.29999923706055 405.8699951171875 50.599998474121094" height="30.471118048780486" data-palette-color="#77d4fc"><path d="M5.95 0.15L5.95 0.15 5.95-31.75 1.6-32.2 1.6-33.4 15.45-33.4 15.45-32.2 11.1-31.75 11.1-2.65Q11.1 8.3 5.05 11.2L5.05 11.2Q2.7 12.3-0.35 12.3-3.4 12.3-5.4 11.25-7.4 10.2-7.4 7.7L-7.4 7.7Q-7.4 6.65-6.48 5.88-5.55 5.1-4.5 5.1-3.45 5.1-2.8 5.3L-2.8 5.3Q-3.1 6.35-3.1 7.25L-3.1 7.25Q-3.1 10.6 0.1 10.6L0.1 10.6Q5.95 10.6 5.95 0.15ZM22.85-5.4L22.85-5.4Q22.85-2.15 25.5-1.55L25.5-1.55Q26.1-1.4 26.65-1.4L26.65-1.4Q28.55-1.4 30.6-3.03 32.65-4.65 32.75-7.4L32.75-7.4 32.75-11.7Q22.85-11.6 22.85-5.4ZM24.85 0.6L24.85 0.6Q22 0.6 19.97-0.98 17.95-2.55 17.95-5.4L17.95-5.4Q18-9.25 21.82-11.15 25.65-13.05 32.75-13.05L32.75-13.05 32.75-17.35Q32.75-23.7 28.15-23.7L28.15-23.7Q25.8-23.7 24.35-21.75L24.35-21.75Q23.35-20.4 23.35-18.4L23.35-18.4Q23.35-17.55 23.55-16.6L23.55-16.6Q22.85-16.1 22.12-16.1 21.4-16.1 20.7-16.4L20.7-16.4Q19.1-17 19.1-18.7L19.1-18.7Q19.1-21 20.75-22.5L20.75-22.5Q23.45-24.95 28.2-24.95 32.95-24.95 35.1-22.93 37.25-20.9 37.25-16.55L37.25-16.55 37.25-1.4 41.45-1.2 41.5-0.05 33.15 0.55 32.7-3.9Q30.4 0.6 24.85 0.6ZM56.5-24.95L56.5-24.95Q59.3-24.95 61.9-23.75L61.9-23.75Q63.35-23.1 64.22-21.75 65.09-20.4 65.09-18.6 65.09-16.8 63.5-16.15L63.5-16.15Q62.85-15.9 62.12-15.9 61.4-15.9 60.65-16.4L60.65-16.4Q60.85-17.45 60.85-18.88 60.85-20.3 59.95-21.6L59.95-21.6Q58.65-23.55 56.25-23.55L56.25-23.55Q49.3-23.55 49.3-12.1L49.3-12.1Q49.3-6.5 50.92-3.68 52.55-0.85 56.2-0.85L56.2-0.85Q60.85-0.85 63.65-5.35L63.65-5.35Q64.75-5 64.75-4.28 64.75-3.55 63.82-2.48 62.9-1.4 60.62-0.43 58.35 0.55 55.4 0.55L55.4 0.55Q50.25 0.55 47.07-2.95 43.9-6.45 43.9-12.2 43.9-17.95 47.32-21.45 50.75-24.95 56.5-24.95ZM83.74-23.25L83.74-24.4 93.54-24.4 93.54-23.25 89.84-22.3 80.29-14.1 91.39-1.55 94.74-1.2 94.74 0 82.89 0 82.89-1.2 85.69-1.45 76.39-12.4 76.39-1.45 79.49-1.2 79.49 0 68.24 0 68.24-1.2 71.49-1.45 71.49-35.9 67.09-36.1 67.04-37.25 76.39-38.3 76.39-13 86.99-22.3 83.74-23.25ZM106.44-0.7L106.44-0.7Q108.44-0.7 109.92-1.8 111.39-2.9 111.39-5.5L111.39-5.5Q111.39-7.25 109.82-8.4 108.24-9.55 105.89-10.48 103.54-11.4 102.72-11.78 101.89-12.15 100.54-13L100.54-13Q98.09-14.65 98.09-17.75 98.09-20.85 100.54-22.9 102.99-24.95 107.69-24.95L107.69-24.95Q110.69-24.95 112.82-23.63 114.94-22.3 114.94-20.45 114.94-18.6 113.54-17.9L113.54-17.9Q112.79-17.55 112.07-17.55 111.34-17.55 110.64-17.85L110.64-17.85Q110.84-18.75 110.84-19.8 110.84-20.85 110.34-21.9L110.34-21.9Q109.49-23.7 107.09-23.7 104.69-23.7 103.44-22.4 102.19-21.1 102.19-19L102.19-19Q102.19-16.85 103.99-15.8L103.99-15.8Q105.34-14.95 107.34-14.25 109.34-13.55 110.07-13.28 110.79-13 111.99-12.35 113.19-11.7 113.79-11L113.79-11Q115.34-9.3 115.34-6.4 115.34-3.5 112.74-1.48 110.14 0.55 106.39 0.55 102.64 0.55 99.82-0.6 96.99-1.75 96.99-3.95L96.99-3.95Q96.99-6 100.04-6.65L100.04-6.65Q100.94-0.7 106.44-0.7ZM144.84-12.2Q144.84-6.65 141.49-3.05 138.14 0.55 132.36 0.55 126.59 0.55 123.24-3.05 119.89-6.65 119.89-12.2 119.89-17.75 123.24-21.35 126.59-24.95 132.36-24.95 138.14-24.95 141.49-21.35 144.84-17.75 144.84-12.2ZM125.34-12.2L125.34-12.2Q125.34-0.65 132.36-0.65 139.39-0.65 139.39-12.2L139.39-12.2Q139.39-17.8 137.79-20.75 136.19-23.7 132.39-23.7 128.59-23.7 126.96-20.75 125.34-17.8 125.34-12.2ZM156.84-19.15L157.29-19.1Q159.54-24.9 166.34-24.9L166.34-24.9Q169.74-24.9 171.84-22.88 173.94-20.85 173.94-17.1L173.94-17.1Q173.94-10.65 173.54-1.45L173.54-1.45 176.99-1.2 176.99 0 165.94 0 165.94-1.2 168.64-1.4Q169.04-12.7 169.04-14.35 169.04-16 168.99-16.88 168.94-17.75 168.71-19.03 168.49-20.3 168.04-21.05L168.04-21.05Q166.94-22.9 164.59-22.9L164.59-22.9Q161.39-22.9 159.34-20.25 157.29-17.6 157.29-14.5L157.29-14.5 157.29-1.45 161.04-1.2 161.04 0 149.09 0 149.09-1.2 152.39-1.45 152.39-22.6 148.14-22.8 148.14-23.95 157.09-24.55 156.84-19.15ZM218.28-32.2L218.28-33.4 228.38-33.4 228.38-32.2 224.88-31.05 224.88 0 222.13 0 199.23-27.45 199.23-2.45 203.38-1.2 203.38 0 193.08 0 193.08-1.2 197.08-2.45 197.08-31.75 192.73-32.25 192.73-33.4 200.93-33.4 222.13-7.75 222.13-31.05 218.28-32.2ZM243.63 0.55Q238.48 0.55 235.33-2.95 232.18-6.45 232.18-12.2 232.18-17.95 235.5-21.45 238.83-24.95 243.88-24.95 248.93-24.95 251.43-22.68 253.93-20.4 253.93-16.35L253.93-16.35Q253.93-15.15 253.73-13.95L253.73-13.95 237.58-13.95 237.58-12.2Q237.58-6.6 239.18-3.73 240.78-0.85 244.43-0.85L244.43-0.85Q249.58-0.85 252.38-5.35L252.38-5.35Q253.48-5 253.48-4.3L253.48-4.3Q253.48-3.05 251.18-1.4L251.18-1.4Q250.08-0.6 248.08-0.03 246.08 0.55 243.63 0.55L243.63 0.55ZM249.18-17.4L249.18-17.4Q249.18-19.7 248.23-21.35L248.23-21.35Q246.93-23.55 244.03-23.55L244.03-23.55Q238.63-23.55 237.73-15.75L237.73-15.75 249.08-15.75Q249.18-16.6 249.18-17.4ZM256.03-23.2L256.03-24.4 266.33-24.4 266.33-23.25 263.03-22.85 270.13-5.35 274.53-17 272.08-22.85 270.03-23.1 270.03-24.4 280.13-24.4 280.13-23.25 276.78-22.85 283.93-5.35 290.13-22.15 286.88-23.1 286.88-24.4 295.28-24.4 295.28-23.1 292.23-22.15 283.73 0 281.73 0 275.63-14.45 269.93 0 267.93 0 258.28-22.85 256.03-23.2ZM330.62-24.75L330.62-24.75Q338.62-24.75 338.62-17.05L338.62-17.05Q338.62-11.5 338.27-1.45L338.27-1.45 341.82-1.2 341.82 0 330.67 0 330.67-1.2 333.37-1.4Q333.72-14.6 333.72-17.43 333.72-20.25 332.67-21.65 331.62-23.05 329.27-23.05 326.92-23.05 324.92-21.08 322.92-19.1 322.22-16.85L322.22-16.85Q322.22-11.45 321.87-1.45L321.87-1.45 325.42-1.2 325.42 0 314.27 0 314.27-1.2 316.97-1.4Q317.32-14.6 317.32-17.43 317.32-20.25 316.27-21.65 315.22-23.05 312.65-23.05 310.07-23.05 307.82-20.33 305.57-17.6 305.57-15.5L305.57-15.5 305.57-1.45 309.32-1.2 309.32 0 297.42 0 297.42-1.2 300.67-1.4 300.67-22.6 296.42-22.8 296.42-23.95 305.37-24.55 305.12-19.4 305.62-19.4Q306.97-22.05 309.25-23.4 311.52-24.75 314.22-24.75L314.22-24.75Q320.97-24.75 322.02-19.35L322.02-19.35 322.02-19.4Q323.37-22.05 325.65-23.4 327.92-24.75 330.62-24.75ZM349.82-5.4L349.82-5.4Q349.82-2.15 352.47-1.55L352.47-1.55Q353.07-1.4 353.62-1.4L353.62-1.4Q355.52-1.4 357.57-3.03 359.62-4.65 359.72-7.4L359.72-7.4 359.72-11.7Q349.82-11.6 349.82-5.4ZM351.82 0.6L351.82 0.6Q348.97 0.6 346.95-0.98 344.92-2.55 344.92-5.4L344.92-5.4Q344.97-9.25 348.8-11.15 352.62-13.05 359.72-13.05L359.72-13.05 359.72-17.35Q359.72-23.7 355.12-23.7L355.12-23.7Q352.77-23.7 351.32-21.75L351.32-21.75Q350.32-20.4 350.32-18.4L350.32-18.4Q350.32-17.55 350.52-16.6L350.52-16.6Q349.82-16.1 349.1-16.1 348.37-16.1 347.67-16.4L347.67-16.4Q346.07-17 346.07-18.7L346.07-18.7Q346.07-21 347.72-22.5L347.72-22.5Q350.42-24.95 355.17-24.95 359.92-24.95 362.07-22.93 364.22-20.9 364.22-16.55L364.22-16.55 364.22-1.4 368.42-1.2 368.47-0.05 360.12 0.55 359.67-3.9Q357.37 0.6 351.82 0.6ZM378.32-19.15L378.77-19.1Q381.02-24.9 387.82-24.9L387.82-24.9Q391.22-24.9 393.32-22.88 395.42-20.85 395.42-17.1L395.42-17.1Q395.42-10.65 395.02-1.45L395.02-1.45 398.47-1.2 398.47 0 387.42 0 387.42-1.2 390.12-1.4Q390.52-12.7 390.52-14.35 390.52-16 390.47-16.88 390.42-17.75 390.19-19.03 389.97-20.3 389.52-21.05L389.52-21.05Q388.42-22.9 386.07-22.9L386.07-22.9Q382.87-22.9 380.82-20.25 378.77-17.6 378.77-14.5L378.77-14.5 378.77-1.45 382.52-1.2 382.52 0 370.57 0 370.57-1.2 373.87-1.45 373.87-22.6 369.62-22.8 369.62-23.95 378.57-24.55 378.32-19.15Z" opacity="1" transform="matrix(1,0,0,1,0,0)" fill="#000000" class="wordmark-text-0" data-fill-palette-color="primary" id="text-0"></path></svg></g></svg></g></svg></g></svg></g></svg></g></svg></g></svg></g><g><path d="M0 123.6c0-68.262 55.338-123.6 123.6-123.6 61.86 0 113.105 45.443 122.174 104.768l-1.39 0c-9.057-58.562-59.685-103.394-120.784-103.394-67.504 0-122.226 54.722-122.226 122.226 0 67.504 54.722 122.226 122.226 122.226 61.099 0 111.727-44.831 120.784-103.394h1.39c-9.069 59.324-60.315 104.768-122.174 104.768-68.262 0-123.6-55.338-123.6-123.6z" fill="#000000" stroke="transparent" data-fill-palette-color="tertiary"></path></g></svg></g><defs></defs></svg><rect width="395.52" height="247.2" fill="none" stroke="none" visibility="hidden"></rect></g></svg></g></svg>